<?xml version="1.0" encoding="UTF-8"?>
<svg width="50px" height="36px" viewBox="0 0 50 36" version="1.1" xmlns="http://www.w3.org/2000/svg" xmlns:xlink="http://www.w3.org/1999/xlink">
    <!-- Generator: Sketch 54.1 (76490) - https://sketchapp.com -->
    <title>002-car</title>
    <desc>Created with Sketch.</desc>
    <g id="Inside" stroke="none" stroke-width="1" fill="none" fill-rule="evenodd">
        <g id="allbc.info_business_center_1140px-_2" transform="translate(-776.000000, -5397.000000)" fill="#3EB060" fill-rule="nonzero">
            <g id="002-car" transform="translate(776.000000, 5397.000000)">
                <path d="M48.1258481,10.7008861 L44.5181013,10.7008861 C44.2433165,10.7008861 43.9792405,10.8070633 43.7808987,10.9970886 L43.0107722,11.7348608 C41.7126076,8.73113924 39.8502911,5.76079747 37.3348481,2.68564557 C35.9750506,1.02406329 33.9642911,0.0712025316 31.8175063,0.0712025316 L17.3735316,0.0712025316 C15.226519,0.0712025316 13.2156456,1.02417722 11.8566456,2.68575949 C9.26179747,5.85763291 7.43650633,8.75643038 6.16910127,11.7242658 L5.41036709,10.9970886 C5.21202532,10.8070633 4.94783544,10.7008861 4.67305063,10.7008861 L1.06553165,10.7008861 C0.477,10.7008861 0,11.1778861 0,11.7664177 L0,14.2329873 C0,14.7954304 0.437240506,15.2608101 0.998544304,15.2963544 L4.70665823,15.5298987 C4.14637975,17.1671013 3.70891139,19.6067848 3.70891139,23.0474051 C3.70891139,26.0327848 4.30518987,27.9948987 5.34292405,29.2651519 L5.34292405,35.0125063 C5.34292405,35.5053418 5.7424557,35.9047595 6.23529114,35.9047595 L10.3398608,35.9047595 C10.8329241,35.9047595 11.2325696,35.5053418 11.2325696,35.0125063 L11.2325696,31.4434937 L37.9586962,31.4434937 L37.9586962,35.0125063 C37.9586962,35.5053418 38.3583418,35.9047595 38.8511772,35.9047595 L42.9557468,35.9047595 C43.4485823,35.9047595 43.8482278,35.5053418 43.8482278,35.0125063 L43.8482278,29.2651519 C44.8857342,27.9948987 45.4823544,26.0327848 45.4823544,23.0474051 C45.4823544,19.6067848 45.0448861,17.1671013 44.4846076,15.5298987 L48.1927215,15.2963544 C48.7539114,15.2608101 49.1911519,14.7954304 49.1911519,14.2329873 L49.1911519,11.7664177 C49.1911519,11.1778861 48.7143797,10.7008861 48.1258481,10.7008861 Z M14.9019494,5.17693671 C15.5109873,4.43255696 16.4118987,4.0054557 17.3735316,4.0054557 L31.8175063,4.0054557 C32.7791392,4.0054557 33.6803924,4.43255696 34.2893165,5.17693671 C36.0491013,7.32816456 37.4388608,9.38688608 38.5129367,11.4376329 L10.6536076,11.4428734 C11.7042152,9.4376962 13.1018354,7.37726582 14.9019494,5.17693671 Z M11.8659873,27.0789494 C9.82298734,27.0789494 8.16698734,26.4116962 8.16698734,24.7929494 C8.16698734,23.1743165 8.76782278,21.8617975 10.8107089,21.8617975 C12.8535949,21.8617975 15.5647595,23.1743165 15.5647595,24.7929494 C15.5647595,26.4115823 13.9086456,27.0789494 11.8659873,27.0789494 Z M28.473038,26.7416203 L20.7183418,26.7416203 C19.5492532,26.7416203 18.5982152,25.7905823 18.5982152,24.6216076 C18.5982152,24.2937342 18.8641139,24.0278354 19.1922152,24.0278354 L29.9993924,24.0278354 C30.3273797,24.0278354 30.5930506,24.2937342 30.5930506,24.6216076 C30.5930506,25.7906962 29.6420127,26.7416203 28.473038,26.7416203 Z M37.3252785,27.0789494 C35.2823924,27.0789494 33.6262785,26.4116962 33.6262785,24.7929494 C33.6262785,23.1743165 36.3377848,21.8617975 38.3803291,21.8617975 C40.4232152,21.8617975 41.0241646,23.1743165 41.0241646,24.7929494 C41.0241646,26.4115823 39.3682785,27.0789494 37.3252785,27.0789494 Z" id="Shape"></path>
            </g>
        </g>
    </g>
</svg>