<svg width="17" height="13" viewBox="0 0 17 13" fill="none" xmlns="http://www.w3.org/2000/svg">
<path fill-rule="evenodd" clip-rule="evenodd" d="M16.5096 0.486527C16.1827 0.162174 15.7877 0 15.3245 0H1.67548C1.21234 0 0.817309 0.162174 0.490385 0.486527C0.16346 0.81088 0 1.19361 0 1.63473V11.3653C0 11.8064 0.16346 12.1891 0.490385 12.5135C0.817309 12.8378 1.21234 13 1.67548 13H15.3245C15.7877 13 16.1827 12.8378 16.5096 12.5135C16.8365 12.1891 17 11.8064 17 11.3653V1.63473C17 1.19361 16.8365 0.81088 16.5096 0.486527ZM15.3245 1.63473V3.26946L8.5 7.2979L1.67548 3.26946V1.63473L8.5 5.7021L15.3245 1.63473Z" fill="#3EB060"/>
</svg>
