<svg width="12" height="17" viewBox="0 0 12 17" fill="none" xmlns="http://www.w3.org/2000/svg">
<path fill-rule="evenodd" clip-rule="evenodd" d="M9.03093 0.796875C8.10996 0.265622 7.09966 0 6 0C4.90034 0 3.89004 0.265622 2.96907 0.796875C2.06185 1.32813 1.34021 2.04326 0.804124 2.94231C0.268039 3.85497 0 4.85616 0 5.94591C0 6.77685 0.206183 7.73036 0.618557 8.80649C0.975947 9.71915 1.47079 10.7067 2.10309 11.7692C2.62543 12.6138 3.22336 13.4924 3.89691 14.405C4.36426 15.0453 4.8591 15.6719 5.38144 16.2849L6 17L6.61856 16.2849C7.1409 15.6719 7.63574 15.0453 8.10309 14.405C8.77664 13.4924 9.37457 12.6138 9.89691 11.7692C10.5292 10.7067 11.0241 9.71915 11.3814 8.80649C11.7938 7.73036 12 6.77685 12 5.94591C12 4.85616 11.732 3.85497 11.1959 2.94231C10.6598 2.04326 9.93815 1.32813 9.03093 0.796875ZM7.07217 7.76442C6.74227 7.95513 6.38488 8.05048 6 8.05048C5.40893 8.05048 4.90722 7.84616 4.49485 7.4375C4.08247 7.02884 3.87629 6.53165 3.87629 5.94591C3.87629 5.5645 3.97251 5.21034 4.16495 4.88341C4.35739 4.55649 4.61512 4.29768 4.93814 4.10697C5.26117 3.91627 5.61512 3.82091 6 3.82091C6.38488 3.82091 6.74227 3.91627 7.07217 4.10697C7.40206 4.29768 7.66323 4.55649 7.85567 4.88341C8.04811 5.21034 8.14433 5.5645 8.14433 5.94591C8.14433 6.32733 8.04811 6.67808 7.85567 6.9982C7.66323 7.31831 7.40206 7.57372 7.07217 7.76442Z" fill="#3EB060"/>
</svg>
