<svg width="15" height="15" viewBox="0 0 15 15" fill="none" xmlns="http://www.w3.org/2000/svg">
<path fill-rule="evenodd" clip-rule="evenodd" d="M11.3041 1.02764C10.1382 0.342545 8.8702 0 7.5 0C6.14182 0 4.87981 0.342545 3.71394 1.02764C2.58413 1.68871 1.68871 2.58413 1.02764 3.71394C0.342545 4.87981 0 6.14182 0 7.5C0 8.85818 0.342545 10.1202 1.02764 11.2861C1.67669 12.4159 2.5661 13.3113 3.69591 13.9724C4.86178 14.6575 6.1298 15 7.5 15C8.8702 15 10.1382 14.6575 11.3041 13.9724C12.4339 13.3233 13.3233 12.4339 13.9724 11.3041C14.6575 10.1382 15 8.8702 15 7.5C15 6.1298 14.6575 4.86178 13.9724 3.69591C13.3233 2.5661 12.4339 1.67669 11.3041 1.02764ZM6.05769 4.50721C6.37019 3.46153 6.85096 2.46395 7.5 1.51442C8.1851 2.51202 8.66586 3.50961 8.94231 4.50721H6.05769ZM4.50721 4.50721C4.75962 3.53365 5.11418 2.63823 5.57091 1.82091C4.88581 2.04928 4.25481 2.40084 3.67788 2.8756C3.10096 3.35036 2.63822 3.89423 2.28966 4.50721H4.50721ZM9.26683 9.01442C9.33894 8.52163 9.375 8.01382 9.375 7.49099C9.375 6.96815 9.33894 6.46635 9.26683 5.98558H5.73317C5.67308 6.39423 5.64303 6.89904 5.64303 7.5C5.64303 8.10096 5.67308 8.60577 5.73317 9.01442H9.26683ZM13.3053 9.01442H10.7812C10.8534 8.52163 10.8894 8.01382 10.8894 7.49099C10.8894 6.96815 10.8534 6.46635 10.7812 5.98558H13.3053C13.4495 6.63462 13.5216 7.13942 13.5216 7.5C13.5216 7.86058 13.4495 8.36538 13.3053 9.01442ZM11.3131 12.1154C10.7422 12.5841 10.1142 12.9327 9.42909 13.1611C9.8738 12.3678 10.2284 11.4784 10.4928 10.4928H12.7103C12.3498 11.1058 11.884 11.6466 11.3131 12.1154ZM8.94231 10.4928C8.66586 11.4904 8.1851 12.488 7.5 13.4856C6.85096 12.5361 6.37019 11.5385 6.05769 10.4928H8.94231ZM3.6869 12.1154C3.11598 11.6466 2.65024 11.1058 2.28966 10.4928H4.50721C4.77164 11.4784 5.1262 12.3678 5.57091 13.1611C4.88581 12.9327 4.25782 12.5841 3.6869 12.1154ZM1.69471 9.01442H4.21875C4.15865 8.47356 4.12861 7.96875 4.12861 7.5C4.12861 7.03125 4.15865 6.52645 4.21875 5.98558H1.69471C1.55048 6.63462 1.47837 7.13942 1.47837 7.5C1.47837 7.86058 1.55048 8.36538 1.69471 9.01442ZM12.7103 4.50721C12.3618 3.89423 11.899 3.35036 11.3221 2.8756C10.7452 2.40084 10.1142 2.04928 9.42909 1.82091C9.88582 2.63823 10.2404 3.53365 10.4928 4.50721H12.7103Z" fill="#3EB060"/>
</svg>
