<svg width="31" height="56" viewBox="0 0 31 56" fill="none" xmlns="http://www.w3.org/2000/svg">
<path d="M14.948 53.2689V53.2325L14.9428 53.1966C14.4563 49.8681 13.5435 44.584 12.1917 40.6586C11.3275 38.1491 9.58591 34.7704 7.82982 31.6504C6.06884 28.5217 4.27488 25.6211 3.2892 24.0574L3.28126 24.0448L3.27259 24.0327C1.52657 21.597 0.5 18.6182 0.5 15.4C0.5 7.174 7.21267 0.5 15.5 0.5C23.7873 0.5 30.5 7.174 30.5 15.4C30.5 18.6214 29.4714 21.603 27.7222 24.04L27.714 24.0514L27.7065 24.0632C26.6893 25.6627 24.876 28.5705 23.1051 31.693C21.3393 34.8066 19.5967 38.1661 18.7384 40.6586C17.3866 44.584 16.4739 49.8681 15.9873 53.1966L15.9821 53.2325V53.2689V55.5H14.948V53.2689Z" fill="url(#paint0_linear)" stroke="#0D5397"/>
<path fill-rule="evenodd" clip-rule="evenodd" d="M15.5 22.4C18.6129 22.4 21.1364 19.8927 21.1364 16.8C21.1364 13.7072 18.6129 11.2 15.5 11.2C12.3871 11.2 9.86365 13.7072 9.86365 16.8C9.86365 19.8927 12.3871 22.4 15.5 22.4Z" fill="#0D5397"/>
<defs>
<linearGradient id="paint0_linear" x1="9.4176" y1="-1.8566" x2="-13.596" y2="30.9249" gradientUnits="userSpaceOnUse">
<stop stop-color="#0BACE1"/>
<stop offset="1" stop-color="#3EB060"/>
</linearGradient>
</defs>
</svg>
