<?xml version="1.0" encoding="UTF-8"?>
<svg width="21px" height="40px" viewBox="0 0 21 40" version="1.1" xmlns="http://www.w3.org/2000/svg" xmlns:xlink="http://www.w3.org/1999/xlink">
    <!-- Generator: Sketch 54.1 (76490) - https://sketchapp.com -->
    <title>001-pedestrian-walking</title>
    <desc>Created with Sketch.</desc>
    <g id="Inside" stroke="none" stroke-width="1" fill="none" fill-rule="evenodd">
        <g id="allbc.info_business_center_1140px-_2" transform="translate(-150.000000, -5395.000000)" fill="#3EB060" fill-rule="nonzero">
            <g id="001-pedestrian-walking" transform="translate(150.000000, 5395.000000)">
                <path d="M9.49647558,6.45622081 C10.3740127,6.42794055 11.1100637,6.08823779 11.7045435,5.43711253 C12.2990234,4.78598726 12.5820807,4.02165605 12.5538004,3.1441189 C12.5255202,2.26641189 12.1999151,1.51626327 11.577155,0.89358811 C10.9543949,0.270828025 10.2041614,-0.0264118896 9.3266242,0.00186836518 C8.44908705,0.03014862 7.71303609,0.36985138 7.11855626,1.02097665 C6.52407643,1.67210191 6.22683652,2.43643312 6.22683652,3.31397028 C6.22683652,4.19150743 6.55235669,4.94174098 7.20348195,5.56450106 C7.85460722,6.18726115 8.61893843,6.48450106 9.49647558,6.45622081 Z" id="Path"></path>
                <path d="M20.2395754,17.1993206 L15.5686624,14.6515499 L11.7470064,8.53690021 C11.0109554,7.63099788 10.105138,7.17808917 9.02938429,7.17808917 C8.29333333,7.17808917 7.58564756,7.48951168 6.90624204,8.11227176 L1.13129512,13.9721444 C0.961443737,14.1986412 0.848237792,14.4534183 0.791592357,14.7364756 L0.0272611465,21.2757537 L0.0272611465,21.4456051 C0.0272611465,21.8418684 0.168832272,22.1815711 0.451889597,22.4647134 C0.734946921,22.7476858 1.07464968,22.8893418 1.47099788,22.8893418 C1.86734607,22.8893418 2.19286624,22.7476858 2.44764331,22.4647134 C2.70242038,22.1815711 2.85808917,21.8702335 2.91473461,21.5305308 L3.50921444,15.9254352 L5.547431,13.8872187 L3.67906582,29.5135456 L0.366963907,36.9021656 C0.253757962,37.2418684 0.197112527,37.5525265 0.197112527,37.836518 C0.197112527,38.4583439 0.409426752,38.9830149 0.834055202,39.4076433 C1.25868365,39.8322718 1.78242038,40.016051 2.40518047,39.9596603 C3.25443737,39.9596603 3.87719745,39.5623779 4.27354565,38.7707006 L7.84042463,30.7875159 C7.84042463,30.7306157 7.86870488,30.6316773 7.92535032,30.490276 C7.98208068,30.3484501 8.03872611,30.2210616 8.0952017,30.1081104 C8.15184713,29.9947346 8.18012739,29.8813588 8.18012739,29.7684076 L8.60475584,25.9466667 L12.2565605,38.5159236 C12.6529087,39.5350318 13.3605945,40.0162208 14.3797028,39.9596603 C14.9459023,39.9596603 15.4412739,39.7473461 15.8659023,39.3227176 C16.2905308,38.8980892 16.502845,38.3734183 16.502845,37.7515924 C16.502845,37.6940127 16.4886624,37.6242038 16.4603822,37.5392781 C16.4321019,37.4543524 16.4179193,37.3833546 16.4179193,37.3267941 L11.3223779,19.9169427 L11.9168577,14.2269214 L13.3605945,16.5199151 C13.4738004,16.6897665 13.6153715,16.8313376 13.7852229,16.9445435 L18.7958386,19.7470913 C19.1355414,19.8602972 19.3620382,19.9169427 19.4752442,19.9169427 C19.8715924,19.9169427 20.2112951,19.7612739 20.4943524,19.4498514 C20.7774098,19.1383439 20.9189809,18.7845435 20.9189809,18.3882803 C20.9189809,17.8787261 20.6924841,17.4823779 20.2395754,17.1993206 Z" id="Path"></path>
            </g>
        </g>
    </g>
</svg>