<svg width="14" height="14" viewBox="0 0 14 14" fill="none" xmlns="http://www.w3.org/2000/svg">
<path fill-rule="evenodd" clip-rule="evenodd" d="M13.5333 0.466667C13.2222 0.155554 12.8551 0 12.432 0H1.568C1.13244 0 0.762224 0.155554 0.457333 0.466667C0.152443 0.777779 0 1.14489 0 1.568V12.432C0 12.8551 0.152443 13.2222 0.457333 13.5333C0.762224 13.8444 1.13244 14 1.568 14H12.432C12.8551 14 13.2222 13.8444 13.5333 13.5333C13.8444 13.2222 14 12.8551 14 12.432V1.568C14 1.14489 13.8444 0.777779 13.5333 0.466667ZM10.9013 6.23467V7.76533H7.76533V10.9013H6.23467V7.76533H3.09867V6.23467H6.23467V3.09867H7.76533V6.23467H10.9013Z" fill="#3EB060"/>
</svg>
