<svg xmlns="http://www.w3.org/2000/svg" xmlns:xlink="http://www.w3.org/1999/xlink" width="20" height="19" viewBox="0 0 20 19"><defs><path id="2zzxa" d="M1112 25c.286 0 .546.07.78.21.235.141.41.333.528.575l2.263 4.616 5.21.747a1.446 1.446 0 0 1 1.152.939 1.353 1.353 0 0 1-.351 1.398l-3.806 3.735.879 5.19c.052.256.022.505-.088.747a1.434 1.434 0 0 1-.908.786 1.654 1.654 0 0 1-.78.019 1.322 1.322 0 0 1-.352-.134L1112 41.433l-4.547 2.395a1.064 1.064 0 0 1-.332.134 1.644 1.644 0 0 1-.79-.02 1.434 1.434 0 0 1-.898-.785 1.187 1.187 0 0 1-.088-.747l.879-5.19-3.806-3.735a1.345 1.345 0 0 1-.351-1.398c.091-.243.24-.45.449-.623.208-.172.442-.278.702-.316l5.21-.747 2.264-4.616c.118-.242.293-.434.527-.574.235-.14.495-.211.781-.211zm0 1.168l-2.283 4.655-.41.823-6.089.881 4.41 4.329-.136.862-.898 5.171 5.406-2.835 5.406 2.835-.898-5.171-.137-.862 4.41-4.329-6.107-.88z"/></defs><g><g transform="translate(-1102 -25)"><use fill="#fff" xlink:href="#2zzxa"/></g></g></svg>