<svg width="13" height="12" viewBox="0 0 13 12" fill="none" xmlns="http://www.w3.org/2000/svg">
<path fill-rule="evenodd" clip-rule="evenodd" d="M7.00739 0.133065C6.85517 0.0443544 6.68604 0 6.5 0C6.31396 0 6.14483 0.0443544 5.99261 0.133065C5.8404 0.221775 5.72623 0.342741 5.65013 0.495968L4.1787 3.41129L0.791888 3.88306C0.622757 3.90726 0.470543 3.97379 0.335239 4.08266C0.199934 4.19153 0.102686 4.32258 0.0434905 4.47581C-0.00724849 4.62903 -0.0135908 4.78427 0.0244635 4.94153C0.0625178 5.09879 0.144967 5.2379 0.271815 5.35887L2.74533 7.71774L2.17452 10.996C2.14069 11.1573 2.15972 11.3145 2.2316 11.4677C2.30348 11.621 2.4113 11.746 2.55506 11.8427C2.63963 11.8992 2.7263 11.9395 2.8151 11.9637C2.90389 11.9879 2.99902 12 3.1005 12C3.17661 12 3.25272 11.9919 3.32883 11.9758C3.40493 11.9597 3.47681 11.9315 3.54447 11.8911L6.5 10.379L9.44285 11.8911C9.51896 11.9315 9.59507 11.9597 9.67117 11.9758C9.74728 11.9919 9.82339 12 9.8995 12C9.99252 12 10.0855 11.9879 10.1786 11.9637C10.2716 11.9395 10.3604 11.8992 10.4449 11.8427C10.5887 11.746 10.6965 11.621 10.7684 11.4677C10.8403 11.3145 10.8593 11.1573 10.8255 10.996L10.2547 7.71774L12.7282 5.35887C12.855 5.2379 12.9375 5.09879 12.9755 4.94153C13.0136 4.78427 13.0072 4.62903 12.9565 4.47581C12.8973 4.31452 12.8001 4.18145 12.6648 4.07661C12.5295 3.97177 12.3772 3.90726 12.2081 3.88306L8.8213 3.41129L7.34987 0.495968C7.27377 0.342741 7.1596 0.221775 7.00739 0.133065ZM5.01589 3.67742L6.5 0.737903L8.2378 4.19758L12.2081 4.75403L9.34137 7.4879L9.43016 8.03226L10.0137 11.2984L6.5 9.50807L2.98634 11.2984L3.56984 8.03226L3.65863 7.4879L0.791888 4.75403L4.74951 4.19758L5.01589 3.67742Z" fill="#868686"/>
</svg>
